<svg viewBox="0 0 97.5 28.3" xmlns="http://www.w3.org/2000/svg" xmlns:xlink="http://www.w3.org/1999/xlink" id="Calque_1" xml:space="preserve" overflow="hidden"><g><g><g><path d="M25.8 14.7C20.7 14.7 16.3 12.7 16.3 7.4 16.3 2 20.9 0.1 25.8 0.1 30.9 0.1 35.3 2.1 35.3 7.4 35.2 12.8 30.6 14.6 25.8 14.7ZM25.8 2.8C21.8 2.8 19.9 4.5 19.9 7.3 19.9 10 21.7 11.8 25.8 11.8 30.1 11.8 31.6 9.8 31.6 7.3 31.6 4.5 29.7 2.8 25.8 2.8Z" fill="#0024D3"/><path d="M50.1 14.1 47 10.6C46.1 9.7 45.9 9.5 44.3 9.5L41.1 9.5 41.1 13.8C41.1 14.1 40.9 14.3 40.6 14.3L38 14.3C37.7 14.3 37.5 14.1 37.5 13.8L37.5 1.5C37.5 0.9 38 0.4 38.6 0.4L48 0.4C51.6 0.4 53.5 2 53.5 4.9 53.5 7.9 51 8.9 50.3 9.1L54.2 14.1C54.3 14.2 54.2 14.3 54.1 14.3L50.5 14.3C50.4 14.3 50.2 14.2 50.1 14.1ZM47.4 6.7 41.1 6.7 41.1 3.5 47.4 3.5C49.4 3.5 49.8 4.4 49.8 5.1 49.8 5.8 49.4 6.7 47.4 6.7Z" fill="#0024D3" fill-rule="evenodd" clip-rule="evenodd"/><path d="M15.6 0.9 15.6 3.3C15.6 3.4 15.5 3.5 15.4 3.5L3.6 3.5C3.6 4.1 3.6 4.3 4.5 4.4L11.6 5C14.3 5.2 14.3 9.5 11.6 9.8 9.4 10 6 10.3 4.8 10.4 4 10.5 3.6 10.7 3.6 11.3L3.6 13.8C3.6 14.1 3.4 14.3 3.1 14.3L0.5 14.3C0.2 14.3 0 14.1 0 13.8L0 10.4C0 9.2 0.4 8.4 1.4 8.3 2.6 8.2 9.8 7.8 9.8 7.8 10 7.7 10 7.4 9.8 7.3 9.8 7.3 2.8 7 1.5 6.8 0.3 6.6 0 5.8 0 4.6L0 1.5C0 0.9 0.5 0.4 1.1 0.4L15.1 0.4C15.4 0.4 15.6 0.6 15.6 0.9Z" fill="#0024D3"/><path d="M75 0.4C74.4 0.4 73.9 0.9 73.9 1.5L73.9 13.8C73.9 14.1 74.1 14.3 74.4 14.3L77 14.3C77.3 14.3 77.5 14.1 77.5 13.8L77.5 0.9C77.5 0.6 77.3 0.4 77 0.4L75 0.4Z" fill="#0024D3"/><path d="M83.1 14 84.3 11.6 92.3 11.6 92.8 12.6C93.3 13.6 94.3 14.2 95.4 14.2L97.4 14.2C97.5 14.2 97.5 14.1 97.5 14L90.5 0.5C90.4 0.3 90.2 0.2 90.1 0.2L86.9 0.2C86.5 0.2 86.1 0.4 85.9 0.8L79 14.1C79 14.2 79 14.3 79.1 14.3L82.6 14.3C82.8 14.3 83 14.2 83.1 14ZM85.5 9.1 88.2 3.6 91 9.1 85.5 9.1Z" fill="#0024D3"/><path d="M68.4 0.7C68.5 0.5 68.7 0.4 68.9 0.4L72.4 0.4C72.5 0.4 72.5 0.5 72.5 0.6L65.5 14.1C65.4 14.3 65.2 14.4 65.1 14.4L61.9 14.4C61.5 14.4 61.1 14.2 60.9 13.8L54 0.5C54 0.4 54 0.3 54.1 0.3L57.6 0.3C57.8 0.3 58 0.4 58.1 0.6L63.3 11 68.4 0.7Z" fill="#0024D3"/></g><g id="XMLID_24_"><g id="XMLID_26_"><path d="M54.2 25.1C54.2 24 54.9 23.4 55.8 23.4 56.7 23.4 57.5 24.1 57.5 25.1 57.5 26.2 56.7 26.9 55.8 26.9 54.8 26.8 54.2 26 54.2 25.1M92.4 25.1C92.4 24 93.1 23.4 94 23.4 94.9 23.4 95.7 24.1 95.7 25.1 95.7 26.2 94.9 26.9 94 26.9 93.1 26.8 92.4 26 92.4 25.1M76.5 23.3C77.1 23.3 77.5 23.6 77.6 23.9L75 24.8C75 23.9 75.6 23.3 76.5 23.3M66.9 25.3 66.9 22 65.2 22 65.2 25.1C65.2 26 64.9 26.7 63.9 26.7 62.9 26.7 62.6 26 62.6 25.1L62.6 22 60.9 22 60.9 25.3C60.9 27 61.9 28.3 63.9 28.3 65.9 28.2 66.9 27 66.9 25.3M87.6 28.1 89.3 28.1 89.3 22 87.6 22 87.6 28.1ZM68.5 24.6 68.5 28 70.2 28 70.2 24.7C70.2 23.7 70.7 23.4 72.3 23.4L72.3 21.8C69.7 21.7 68.5 22.7 68.5 24.6M79.3 27.5 78.6 26.3C78.2 26.6 77.7 26.8 76.9 26.8 76.2 26.8 75.6 26.6 75.3 26.1L79.5 24.8C79.3 22.9 78.3 21.9 76.6 21.9 74.7 21.9 73.5 23.2 73.5 25.1 73.5 27.1 74.9 28.3 77 28.3 77.9 28.2 78.7 28 79.3 27.5M84.1 23.4C84.7 23.4 85 23.6 85.4 23.8L86.1 22.5C85.5 22.1 84.8 21.8 83.9 21.8 82.1 21.8 80.6 23 80.6 25 80.6 27 82 28.2 83.9 28.2 84.9 28.2 85.5 28 86.1 27.5L85.3 26.3C84.9 26.6 84.6 26.7 84 26.7 83 26.7 82.3 26.1 82.3 25.1 82.4 24 83.1 23.4 84.1 23.4M57.5 28.1 59.1 28.1 59.1 22 57.5 22 57.5 22.6C57 22.1 56.4 21.9 55.6 21.9 53.8 21.9 52.5 23.2 52.5 25.1 52.5 27 53.8 28.3 55.6 28.3 56.4 28.3 57.1 28.1 57.5 27.6L57.5 28.1ZM95.7 28.1 97.3 28.1 97.3 22 95.7 22 95.7 22.6C95.2 22.1 94.5 21.8 93.8 21.8 92 21.8 90.7 23.1 90.7 25 90.7 26.9 92 28.2 93.8 28.2 94.6 28.2 95.2 27.9 95.7 27.4L95.7 28.1ZM87.6 20.9 89.3 20.9 89.3 19.2 87.6 19.2 87.6 20.9ZM51.7 23.6 51.7 22 49 22 49 21.7C49 20.6 49.7 20.1 51.8 20.4L51.8 18.8C48.7 18.4 47.3 19.5 47.3 21.6L47.3 28.1 49 28.1 49 23.7 51.7 23.7Z" id="XMLID_27_" fill="#0024D3"/></g><rect x="44.6" y="22" width="1.6" height="1.6" id="XMLID_25_" fill="#FA0057"/></g></g></g></svg>